# xmcd
# Copyright (C) 1995-1998 Ti Kan
#
# Track frame offsets:
#       150
#       14615
#       27822
#       45792
#       64816
#       82838
#       102137
#       120067
#       134900
#       158325
#       170620
#       191604
#       208064
#       226214
#       252674
#       268839
#
# Disc length: 3783 seconds
#
# Revision: 0
# Processed by: cddbd v1.5.1PL0 Copyright (c) Steve Scherf et al.
# Submitted via: CD-Transfer v1.0
#
DISCID=ce0ec510
DTITLE=Gopfriedstutz - Nimm Was Chasch, Gib Was Heasch
DYEAR=2004
DGENRE=
TTITLE0=Nimm Was Chasch, Gib Was Heasch
TTITLE1=S' Tuet Weh
TTITLE2=Tröim
TTITLE3=Cora
TTITLE4=Mi Fründ Der Franz
TTITLE5=S' Isch Nid Im Härz, S' Isch Im Chopf
TTITLE6=Ufo's
TTITLE7=Äs Brucht Ke Bärner I De Bänd
TTITLE8=Ouge Lüge Nie
TTITLE9=Nachtmönsch
TTITLE10=Einisch Nur
TTITLE11=Zieh Mi
TTITLE12=Chumm Zu Mir
TTITLE13=Müüt Isch Ewig
TTITLE14=S' Isch Zyt Zum Läbe
TTITLE15=Ufem Wäg Zu Mine Ängle
EXTD=
EXTT0=
EXTT1=
EXTT2=
EXTT3=
EXTT4=
EXTT5=
EXTT6=
EXTT7=
EXTT8=
EXTT9=
EXTT10=
EXTT11=
EXTT12=
EXTT13=
EXTT14=
EXTT15=
PLAYORDER=
